<svg width="71" height="22" viewBox="0 0 71 22" fill="none" xmlns="http://www.w3.org/2000/svg">
<g clip-path="url(#clip0_4_12)">
<path d="M3.27227 3.68561L22.0015 5.65413L20.6139 18.8554L1.88476 16.8869L3.27227 3.68561Z" fill="#11001C"/>
<path d="M19.8082 3.96187V15.9475C19.8205 16.1954 19.7346 16.4382 19.5691 16.6233C19.4037 16.8084 19.172 16.9208 18.9242 16.9363H0.945843C0.698089 16.9363 0.460255 16.8389 0.283671 16.6651C0.107086 16.4914 0.00590946 16.2551 0.00197685 16.0074V4.0218C-0.00633283 3.8936 0.0120408 3.76507 0.0559369 3.64433C0.099833 3.5236 0.168298 3.41328 0.257003 3.32035C0.345708 3.22742 0.452724 3.1539 0.57129 3.10444C0.689857 3.05498 0.817395 3.03065 0.945843 3.03299L18.9242 3.03299C19.1627 3.04454 19.3876 3.14749 19.5522 3.32045C19.7168 3.49341 19.8084 3.72311 19.8082 3.96187Z" fill="#3A015C"/>
<path d="M7.05848 9.98464V9.81984C7.19332 9.62507 7.50794 9.16063 7.74765 8.86099C8.63159 7.73734 9.24585 7.13806 9.74025 7.03319C9.91451 6.97635 10.0963 6.94605 10.2796 6.9433C10.5447 6.93435 10.8087 6.98181 11.054 7.08254C11.2994 7.18326 11.5206 7.33497 11.7029 7.5276C11.853 7.67397 11.9727 7.84862 12.055 8.04148C12.1373 8.23433 12.1805 8.44157 12.1823 8.65124C12.1835 8.90942 12.1245 9.16432 12.0101 9.39575C11.8957 9.62719 11.729 9.82881 11.5231 9.98464C11.7333 10.135 11.9052 10.3326 12.0249 10.5617C12.1446 10.7907 12.2088 11.0447 12.2123 11.3031C12.1853 11.7508 11.9862 12.1707 11.6568 12.4751C11.3273 12.7795 10.8929 12.9446 10.4444 12.9361C10.272 12.9347 10.1006 12.9095 9.93502 12.8612C9.48556 12.7713 8.79639 12.172 7.91245 11.0933C7.63309 10.764 7.37297 10.4188 7.13339 10.0596" fill="#E6E9ED"/>
</g>
<path d="M36.228 15.47C35.548 15.47 34.94 15.382 34.404 15.206C33.868 15.03 33.4 14.778 33 14.45L33.36 13.658C33.64 13.866 33.92 14.042 34.2 14.186C34.488 14.322 34.796 14.426 35.124 14.498C35.452 14.562 35.82 14.594 36.228 14.594C36.94 14.594 37.468 14.462 37.812 14.198C38.156 13.934 38.328 13.582 38.328 13.142C38.328 12.766 38.208 12.478 37.968 12.278C37.728 12.078 37.308 11.918 36.708 11.798L35.448 11.546C34.672 11.386 34.092 11.126 33.708 10.766C33.332 10.406 33.144 9.918 33.144 9.302C33.144 8.798 33.272 8.358 33.528 7.982C33.792 7.606 34.16 7.314 34.632 7.106C35.104 6.898 35.652 6.794 36.276 6.794C36.876 6.794 37.424 6.886 37.92 7.07C38.416 7.246 38.84 7.506 39.192 7.85L38.844 8.618C38.468 8.282 38.072 8.042 37.656 7.898C37.248 7.746 36.784 7.67 36.264 7.67C35.608 7.67 35.088 7.814 34.704 8.102C34.328 8.382 34.14 8.766 34.14 9.254C34.14 9.646 34.26 9.954 34.5 10.178C34.74 10.394 35.136 10.558 35.688 10.67L36.96 10.922C37.776 11.09 38.376 11.342 38.76 11.678C39.144 12.014 39.336 12.486 39.336 13.094C39.336 13.558 39.208 13.97 38.952 14.33C38.704 14.69 38.348 14.97 37.884 15.17C37.42 15.37 36.868 15.47 36.228 15.47Z" fill="#11001C"/>
<path d="M42.9606 15.47C42.2486 15.47 41.7086 15.274 41.3406 14.882C40.9806 14.49 40.8006 13.89 40.8006 13.082V9.338H41.7726V13.058C41.7726 13.61 41.8846 14.018 42.1086 14.282C42.3326 14.538 42.6806 14.666 43.1526 14.666C43.6806 14.666 44.1046 14.494 44.4246 14.15C44.7446 13.806 44.9046 13.346 44.9046 12.77V9.338H45.8766V15.362H44.9286V14.006H45.0846C44.9166 14.47 44.6446 14.83 44.2686 15.086C43.9006 15.342 43.4646 15.47 42.9606 15.47Z" fill="#11001C"/>
<path d="M50.7863 15.47C50.2423 15.47 49.7743 15.334 49.3823 15.062C48.9903 14.782 48.7263 14.402 48.5903 13.922H48.7223V15.362H47.7623V6.53H48.7343V10.742H48.5903C48.7263 10.278 48.9903 9.91 49.3823 9.638C49.7743 9.366 50.2423 9.23 50.7863 9.23C51.3303 9.23 51.7983 9.358 52.1903 9.614C52.5903 9.862 52.8983 10.218 53.1143 10.682C53.3383 11.146 53.4503 11.702 53.4503 12.35C53.4503 12.998 53.3383 13.554 53.1143 14.018C52.8903 14.482 52.5783 14.842 52.1783 15.098C51.7863 15.346 51.3223 15.47 50.7863 15.47ZM50.5823 14.678C51.1503 14.678 51.6063 14.482 51.9503 14.09C52.2943 13.698 52.4663 13.118 52.4663 12.35C52.4663 11.582 52.2943 11.002 51.9503 10.61C51.6063 10.21 51.1503 10.01 50.5823 10.01C50.0143 10.01 49.5583 10.21 49.2143 10.61C48.8783 11.002 48.7103 11.582 48.7103 12.35C48.7103 13.11 48.8783 13.69 49.2143 14.09C49.5583 14.482 50.0143 14.678 50.5823 14.678Z" fill="#11001C"/>
<path d="M55.0777 15.362V6.902H55.9417L59.3377 14.57H58.9897L62.3857 6.902H63.2497V15.362H62.3377V8.186H62.6977L59.4937 15.362H58.8337L55.6177 8.186H55.9777V15.362H55.0777Z" fill="#11001C"/>
<path d="M67.9344 15.47C66.9904 15.47 66.2464 15.198 65.7024 14.654C65.1584 14.102 64.8864 13.338 64.8864 12.362C64.8864 11.73 65.0064 11.182 65.2464 10.718C65.4864 10.246 65.8224 9.882 66.2544 9.626C66.6864 9.362 67.1824 9.23 67.7424 9.23C68.2944 9.23 68.7584 9.346 69.1344 9.578C69.5104 9.81 69.7984 10.142 69.9984 10.574C70.1984 10.998 70.2984 11.502 70.2984 12.086V12.446H65.6304V11.834H69.6624L69.4584 11.99C69.4584 11.35 69.3144 10.85 69.0264 10.49C68.7384 10.13 68.3104 9.95 67.7424 9.95C67.1424 9.95 66.6744 10.162 66.3384 10.586C66.0024 11.002 65.8344 11.566 65.8344 12.278V12.386C65.8344 13.138 66.0184 13.71 66.3864 14.102C66.7624 14.486 67.2864 14.678 67.9584 14.678C68.3184 14.678 68.6544 14.626 68.9664 14.522C69.2864 14.41 69.5904 14.23 69.8784 13.982L70.2144 14.666C69.9504 14.922 69.6144 15.122 69.2064 15.266C68.8064 15.402 68.3824 15.47 67.9344 15.47Z" fill="#11001C"/>
<defs>
<clipPath id="clip0_4_12">
<rect width="22" height="22" fill="white" transform="matrix(0 1 -1 0 22 0)"/>
</clipPath>
</defs>
</svg>
